# xmcd CD database file
#
# Track frame offsets:
#	150
#	21663
#	50974
#	64190
#	83433
#	116428
#	135667
#	151493
#	172604
#	190311
#	208994
#	230251
#	254406
#	280867
#
# Disc length: 4073 seconds
#
# Revision: 0
# Processed by: cddbd v1.5PL3 Copyright (c) Steve Scherf et al.
# Submitted via: CDex 1.50
#
DISCID=c60fe70e
DTITLE=Werner Lehner Trio - My Own
DYEAR=1996
DGENRE=Jazz
TTITLE0=Happy with Friends
TTITLE1=Turnaround
TTITLE2=Buckie Wuckie
TTITLE3=Nearly the Blues
TTITLE4=My Own
TTITLE5=Talk with the Band
TTITLE6=In a Miat
TTITLE7=Joy of Live
TTITLE8=Danny Boy
TTITLE9=Stammba
TTITLE10=Bass Hit
TTITLE11=Waltz for Bette
TTITLE12=Cubano Chant
TTITLE13=Just Friends
EXTD=YEAR: 1996
EXTT0=
EXTT1=
EXTT2=
EXTT3=
EXTT4=
EXTT5=
EXTT6=
EXTT7=
EXTT8=
EXTT9=
EXTT10=
EXTT11=
EXTT12=
EXTT13=
PLAYORDER=
